<svg xmlns="http://www.w3.org/2000/svg" viewBox="0 0 16.71 18.39"><defs><style>.cls-1{fill:#fff;}</style></defs><g id="Ebene_2" data-name="Ebene 2"><g id="Ebene_1-2" data-name="Ebene 1"><path class="cls-1" d="M9.37.33a36.27,36.27,0,0,0,0,17.73v.33L0,12.08V6.31L9.37,0Z"/><path class="cls-1" d="M9.73,3.41a30.59,30.59,0,0,0-.36,3.05,4.48,4.48,0,0,1,0,5.54c.08,1,.2,2.05.37,3.05a7,7,0,0,0,0-11.64Z"/><path class="cls-1" d="M10.34.4c-.2.81-.38,1.63-.53,2.47a6.79,6.79,0,0,1,0,12.71c.15.83.33,1.66.54,2.47A9.3,9.3,0,0,0,10.34.4Z"/></g></g></svg>