<svg xmlns="http://www.w3.org/2000/svg" viewBox="0 0 31.62 35.45"><defs><style>.cls-1{fill:#fff;}</style></defs><g id="Ebene_2" data-name="Ebene 2"><g id="Ebene_1-2" data-name="Ebene 1"><path class="cls-1" d="M26.71,35.45H4.91a.86.86,0,0,1-.85-.76l-4-29a.85.85,0,0,1,.85-1h29.9a.86.86,0,0,1,.86,1l-4.06,29A.85.85,0,0,1,26.71,35.45ZM7.14,33H24.48a.86.86,0,0,0,.85-.76l3.49-24a.85.85,0,0,0-.85-1H3.66a.86.86,0,0,0-.86,1l3.49,24A.86.86,0,0,0,7.14,33Z"/><rect class="cls-1" x="3.99" width="23.64" height="2.5" rx="0.86"/></g></g></svg>