<svg xmlns="http://www.w3.org/2000/svg" viewBox="0 0 35.02 33.71"><defs><style>.cls-1{fill:#fff;}</style></defs><g id="Ebene_2" data-name="Ebene 2"><g id="Ebene_1-2" data-name="Ebene 1"><path class="cls-1" d="M27.41,33.71H7.62a1.92,1.92,0,0,1-1.93-1.92V12.72a.85.85,0,0,1,.85-.85h.81a.85.85,0,0,1,.84.85V30.36a.85.85,0,0,0,.85.85H26a.85.85,0,0,0,.85-.85V12.72a.85.85,0,0,1,.85-.85h.81a.85.85,0,0,1,.84.85V31.79A1.92,1.92,0,0,1,27.41,33.71Z"/><path class="cls-1" d="M33.4,11.14,17.91,2.93a.85.85,0,0,0-.79,0L1.62,11.14a.84.84,0,0,1-1.14-.35L.1,10.07A.84.84,0,0,1,.45,8.93L17.12.1a.85.85,0,0,1,.79,0L34.58,8.93a.85.85,0,0,1,.35,1.14l-.38.72A.85.85,0,0,1,33.4,11.14Z"/></g></g></svg>