<svg xmlns="http://www.w3.org/2000/svg" viewBox="0 0 27.81 22.87"><defs><style>.cls-1{fill:#fff;}</style></defs><g id="Ebene_2" data-name="Ebene 2"><g id="Ebene_1-2" data-name="Ebene 1"><path class="cls-1" d="M7.48,22.87H.85A.85.85,0,0,1,0,22V.85A.85.85,0,0,1,.85,0H7.48a.85.85,0,0,1,.85.85V22A.85.85,0,0,1,7.48,22.87Zm-4.13-2.5H5a.85.85,0,0,0,.85-.85V3.35A.85.85,0,0,0,5,2.5H3.35a.85.85,0,0,0-.85.85V19.52A.85.85,0,0,0,3.35,20.37Z"/><path class="cls-1" d="M17.22,22.87H10.59A.85.85,0,0,1,9.74,22V.85A.85.85,0,0,1,10.59,0h6.63a.85.85,0,0,1,.85.85V22A.85.85,0,0,1,17.22,22.87Zm-4.13-2.5h1.63a.85.85,0,0,0,.85-.85V3.35a.85.85,0,0,0-.85-.85H13.09a.85.85,0,0,0-.85.85V19.52A.85.85,0,0,0,13.09,20.37Z"/><path class="cls-1" d="M27,22.87H20.33a.85.85,0,0,1-.85-.85V.85A.85.85,0,0,1,20.33,0H27a.85.85,0,0,1,.85.85V22A.85.85,0,0,1,27,22.87Zm-4.13-2.5h1.63a.85.85,0,0,0,.85-.85V3.35a.85.85,0,0,0-.85-.85H22.83a.85.85,0,0,0-.85.85V19.52A.85.85,0,0,0,22.83,20.37Z"/></g></g></svg>