<svg xmlns="http://www.w3.org/2000/svg" viewBox="0 0 28.72 23.77"><defs><style>.cls-1{fill:#4b74f5;}</style></defs><g id="Ebene_2" data-name="Ebene 2"><g id="Ebene_1-2" data-name="Ebene 1"><g id="Ebene_2-2" data-name="Ebene 2"><g id="Ebene_1-2-2" data-name="Ebene 1-2"><g id="rewind"><path class="cls-1" d="M2.16,15.16H.84A.83.83,0,0,1,0,14.34V13.22a10,10,0,0,1,10-10h8.35v3H10a7,7,0,0,0-7,7v1.1a.82.82,0,0,1-.82.84Z"/><path class="cls-1" d="M23.33,5,19.09,9.21a.43.43,0,0,1-.73-.3V.42A.43.43,0,0,1,18.8,0a.45.45,0,0,1,.29.12l4.24,4.24a.44.44,0,0,1,0,.61Z"/><path class="cls-1" d="M26.56,8.61h1.32a.84.84,0,0,1,.84.83v1.11a10,10,0,0,1-10,10H10.36v-3h8.35a7,7,0,0,0,7-7V9.44a.83.83,0,0,1,.83-.83Z"/><path class="cls-1" d="M5.39,18.8l4.24-4.25a.44.44,0,0,1,.61,0,.42.42,0,0,1,.12.3v8.49a.42.42,0,0,1-.44.42.4.4,0,0,1-.29-.12L5.39,19.4a.41.41,0,0,1,0-.59Z"/></g></g></g></g></g></svg>