<svg xmlns="http://www.w3.org/2000/svg" viewBox="0 0 28.72 23.79"><defs><style>.cls-1{fill:#fff;}</style></defs><g id="Ebene_2" data-name="Ebene 2"><g id="Ebene_1-2" data-name="Ebene 1"><g id="rewind"><path class="cls-1" d="M2.16,15.17H.84A.83.83,0,0,1,0,14.33v-1.1a10,10,0,0,1,10-10h8.35v3H10a7,7,0,0,0-7,7v1.1A.83.83,0,0,1,2.16,15.17Z"/><path class="cls-1" d="M23.33,5,19.09,9.22a.43.43,0,0,1-.73-.3V.43a.43.43,0,0,1,.73-.3l4.24,4.24A.43.43,0,0,1,23.33,5Z"/><path class="cls-1" d="M26.56,8.62h1.32a.84.84,0,0,1,.84.83v1.11a10,10,0,0,1-10,10H10.36v-3h8.35a7,7,0,0,0,7-7V9.45A.83.83,0,0,1,26.56,8.62Z"/><path class="cls-1" d="M5.39,18.81l4.24-4.25a.43.43,0,0,1,.73.31v8.49a.43.43,0,0,1-.73.3L5.39,19.41A.42.42,0,0,1,5.39,18.81Z"/></g></g></g></svg>