<svg xmlns="http://www.w3.org/2000/svg" viewBox="0 0 23.61 19.23"><defs><style>.cls-1{fill:#fff;}</style></defs><g id="Ebene_2" data-name="Ebene 2"><g id="Ebene_1-2" data-name="Ebene 1"><g id="shuffle"><path class="cls-1" d="M23.33,5,19.09,9.22a.43.43,0,0,1-.73-.3V.43a.43.43,0,0,1,.73-.3l4.24,4.24A.43.43,0,0,1,23.33,5Z"/><path class="cls-1" d="M2.16,16.84H.84A.83.83,0,0,1,0,16V13.23a10,10,0,0,1,10-10h8.35v3H10a7,7,0,0,0-7,7V16A.83.83,0,0,1,2.16,16.84Z"/><path class="cls-1" d="M2.31,2.38H1a.85.85,0,0,0-.84.84V6a10,10,0,0,0,10,10h8.35V13H10.16a7,7,0,0,1-7-7V3.22A.84.84,0,0,0,2.31,2.38Z"/><path class="cls-1" d="M23.48,14.25,19.24,10a.43.43,0,0,0-.73.3V18.8a.43.43,0,0,0,.73.3l4.24-4.24A.43.43,0,0,0,23.48,14.25Z"/></g></g></g></svg>