<svg xmlns="http://www.w3.org/2000/svg" viewBox="0 0 23.61 19.21"><defs><style>.cls-1{fill:#4b74f5;}</style></defs><g id="Ebene_2" data-name="Ebene 2"><g id="Ebene_1-2" data-name="Ebene 1"><g id="Ebene_2-2" data-name="Ebene 2"><g id="Ebene_1-2-2" data-name="Ebene 1-2"><g id="shuffle"><path class="cls-1" d="M23.33,5,19.09,9.21a.43.43,0,0,1-.73-.3V.42A.43.43,0,0,1,18.8,0a.45.45,0,0,1,.29.12l4.24,4.24a.44.44,0,0,1,0,.61Z"/><path class="cls-1" d="M2.16,16.83H.84A.83.83,0,0,1,0,16V13.22a10,10,0,0,1,10-10h8.35v3H10a7,7,0,0,0-7,7V16a.82.82,0,0,1-.82.84Z"/><path class="cls-1" d="M2.31,2.37H1a.86.86,0,0,0-.84.84V6a10,10,0,0,0,10,10h8.35V13H10.16a7,7,0,0,1-7-7V3.21a.85.85,0,0,0-.84-.84Z"/><path class="cls-1" d="M23.48,14.24,19.24,10a.44.44,0,0,0-.61,0,.45.45,0,0,0-.12.29v8.5a.42.42,0,0,0,.44.42.4.4,0,0,0,.29-.12l4.24-4.24a.43.43,0,0,0,0-.61Z"/></g></g></g></g></g></svg>